<svg xmlns="http://www.w3.org/2000/svg" width="128" height="160" viewBox="0 0 128 160"><polygon points="61,3 88,10 117,131 90,152 69,142 45,155 10,134 34,50" fill="#253649"/><polygon points="62,7 85,14 111,129 88,145 68,136 44,148 17,131 39,52" fill="#686ea7"/><polygon points="64,12 73,14 71,131 63,139 47,143" fill="#cab4e6"/><polygon points="39,64 45,55 35,125 23,130" fill="#cab4e6"/><ellipse cx="53.0" cy="118.0" rx="3.0" ry="3.0" fill="#e7bf76" stroke="none" stroke-width="2"/><ellipse cx="64.0" cy="118.0" rx="3.0" ry="3.0" fill="#e7bf76" stroke="none" stroke-width="2"/><ellipse cx="75.0" cy="118.0" rx="3.0" ry="3.0" fill="#e7bf76" stroke="none" stroke-width="2"/><ellipse cx="86.0" cy="118.0" rx="3.0" ry="3.0" fill="#e7bf76" stroke="none" stroke-width="2"/></svg>
